<mxfile host="app.diagrams.net" modified="2023-06-21T05:35:43.473Z" agent="5.0 (Macintosh; Intel Mac OS X 10_15_7) AppleWebKit/537.36 (KHTML, like Gecko) Chrome/114.0.0.0 Safari/537.36" etag="hasJ_ChAguxKdvDkFBRH" version="21.0.2" type="github">
  <diagram name="第 1 页" id="ho689Xq9dsL9hHBmTAUB">
    <mxGraphModel dx="1137" dy="666" grid="1" gridSize="10" guides="1" tooltips="1" connect="1" arrows="1" fold="1" page="1" pageScale="1" pageWidth="827" pageHeight="1169" math="0" shadow="0">
      <root>
        <mxCell id="0" />
        <mxCell id="1" parent="0" />
        <mxCell id="bAY7ywy6ZvZMYUQwSM17-5" style="edgeStyle=orthogonalEdgeStyle;rounded=0;orthogonalLoop=1;jettySize=auto;html=1;exitX=1;exitY=0.5;exitDx=0;exitDy=0;" edge="1" parent="1" source="bAY7ywy6ZvZMYUQwSM17-1" target="bAY7ywy6ZvZMYUQwSM17-2">
          <mxGeometry relative="1" as="geometry">
            <mxPoint x="220" y="260" as="targetPoint" />
          </mxGeometry>
        </mxCell>
        <mxCell id="bAY7ywy6ZvZMYUQwSM17-1" value="browser" style="rounded=1;whiteSpace=wrap;html=1;" vertex="1" parent="1">
          <mxGeometry x="80" y="240" width="120" height="40" as="geometry" />
        </mxCell>
        <mxCell id="bAY7ywy6ZvZMYUQwSM17-18" style="edgeStyle=orthogonalEdgeStyle;rounded=0;orthogonalLoop=1;jettySize=auto;html=1;exitX=0.5;exitY=1;exitDx=0;exitDy=0;entryX=0.5;entryY=0;entryDx=0;entryDy=0;" edge="1" parent="1" source="bAY7ywy6ZvZMYUQwSM17-2" target="bAY7ywy6ZvZMYUQwSM17-7">
          <mxGeometry relative="1" as="geometry" />
        </mxCell>
        <mxCell id="bAY7ywy6ZvZMYUQwSM17-2" value="server/controller" style="rounded=1;whiteSpace=wrap;html=1;" vertex="1" parent="1">
          <mxGeometry x="240" y="240" width="120" height="40" as="geometry" />
        </mxCell>
        <mxCell id="bAY7ywy6ZvZMYUQwSM17-12" style="edgeStyle=orthogonalEdgeStyle;rounded=0;orthogonalLoop=1;jettySize=auto;html=1;exitX=0;exitY=0.5;exitDx=0;exitDy=0;entryX=1;entryY=0.5;entryDx=0;entryDy=0;" edge="1" parent="1" source="bAY7ywy6ZvZMYUQwSM17-3" target="bAY7ywy6ZvZMYUQwSM17-9">
          <mxGeometry relative="1" as="geometry" />
        </mxCell>
        <mxCell id="bAY7ywy6ZvZMYUQwSM17-3" value="3rd party server" style="rounded=1;whiteSpace=wrap;html=1;" vertex="1" parent="1">
          <mxGeometry x="720" y="440" width="120" height="40" as="geometry" />
        </mxCell>
        <mxCell id="bAY7ywy6ZvZMYUQwSM17-10" style="edgeStyle=orthogonalEdgeStyle;rounded=0;orthogonalLoop=1;jettySize=auto;html=1;exitX=0;exitY=0.5;exitDx=0;exitDy=0;entryX=1;entryY=0.5;entryDx=0;entryDy=0;" edge="1" parent="1" source="bAY7ywy6ZvZMYUQwSM17-4" target="bAY7ywy6ZvZMYUQwSM17-8">
          <mxGeometry relative="1" as="geometry" />
        </mxCell>
        <mxCell id="bAY7ywy6ZvZMYUQwSM17-23" value="sync" style="edgeStyle=orthogonalEdgeStyle;rounded=0;orthogonalLoop=1;jettySize=auto;html=1;exitX=0.5;exitY=0;exitDx=0;exitDy=0;entryX=1;entryY=0.5;entryDx=0;entryDy=0;" edge="1" parent="1" source="bAY7ywy6ZvZMYUQwSM17-4" target="bAY7ywy6ZvZMYUQwSM17-22">
          <mxGeometry relative="1" as="geometry" />
        </mxCell>
        <mxCell id="bAY7ywy6ZvZMYUQwSM17-4" value="3rd party server" style="rounded=1;whiteSpace=wrap;html=1;" vertex="1" parent="1">
          <mxGeometry x="720" y="360" width="120" height="40" as="geometry" />
        </mxCell>
        <mxCell id="bAY7ywy6ZvZMYUQwSM17-16" style="edgeStyle=orthogonalEdgeStyle;rounded=0;orthogonalLoop=1;jettySize=auto;html=1;exitX=0.25;exitY=0;exitDx=0;exitDy=0;entryX=0.25;entryY=1;entryDx=0;entryDy=0;" edge="1" parent="1" source="bAY7ywy6ZvZMYUQwSM17-6" target="bAY7ywy6ZvZMYUQwSM17-7">
          <mxGeometry relative="1" as="geometry" />
        </mxCell>
        <mxCell id="bAY7ywy6ZvZMYUQwSM17-6" value="cache" style="rounded=1;whiteSpace=wrap;html=1;" vertex="1" parent="1">
          <mxGeometry x="380" y="440" width="120" height="40" as="geometry" />
        </mxCell>
        <mxCell id="bAY7ywy6ZvZMYUQwSM17-15" style="edgeStyle=orthogonalEdgeStyle;rounded=0;orthogonalLoop=1;jettySize=auto;html=1;exitX=0.75;exitY=1;exitDx=0;exitDy=0;entryX=0.75;entryY=0;entryDx=0;entryDy=0;" edge="1" parent="1" source="bAY7ywy6ZvZMYUQwSM17-7" target="bAY7ywy6ZvZMYUQwSM17-6">
          <mxGeometry relative="1" as="geometry" />
        </mxCell>
        <mxCell id="bAY7ywy6ZvZMYUQwSM17-7" value="service（retry）" style="rounded=1;whiteSpace=wrap;html=1;" vertex="1" parent="1">
          <mxGeometry x="380" y="360" width="120" height="40" as="geometry" />
        </mxCell>
        <mxCell id="bAY7ywy6ZvZMYUQwSM17-11" style="edgeStyle=orthogonalEdgeStyle;rounded=0;orthogonalLoop=1;jettySize=auto;html=1;exitX=0;exitY=0.5;exitDx=0;exitDy=0;" edge="1" parent="1" source="bAY7ywy6ZvZMYUQwSM17-8" target="bAY7ywy6ZvZMYUQwSM17-7">
          <mxGeometry relative="1" as="geometry" />
        </mxCell>
        <mxCell id="bAY7ywy6ZvZMYUQwSM17-8" value="formator(format,alert)" style="rounded=1;whiteSpace=wrap;html=1;" vertex="1" parent="1">
          <mxGeometry x="560" y="360" width="120" height="40" as="geometry" />
        </mxCell>
        <mxCell id="bAY7ywy6ZvZMYUQwSM17-13" style="edgeStyle=orthogonalEdgeStyle;rounded=0;orthogonalLoop=1;jettySize=auto;html=1;exitX=0;exitY=0.5;exitDx=0;exitDy=0;entryX=1;entryY=0.5;entryDx=0;entryDy=0;" edge="1" parent="1" source="bAY7ywy6ZvZMYUQwSM17-9" target="bAY7ywy6ZvZMYUQwSM17-7">
          <mxGeometry relative="1" as="geometry" />
        </mxCell>
        <mxCell id="bAY7ywy6ZvZMYUQwSM17-9" value="formator" style="rounded=1;whiteSpace=wrap;html=1;" vertex="1" parent="1">
          <mxGeometry x="560" y="440" width="120" height="40" as="geometry" />
        </mxCell>
        <mxCell id="bAY7ywy6ZvZMYUQwSM17-20" style="edgeStyle=orthogonalEdgeStyle;rounded=0;orthogonalLoop=1;jettySize=auto;html=1;exitX=1;exitY=0.25;exitDx=0;exitDy=0;" edge="1" parent="1" source="bAY7ywy6ZvZMYUQwSM17-19" target="bAY7ywy6ZvZMYUQwSM17-8">
          <mxGeometry relative="1" as="geometry" />
        </mxCell>
        <mxCell id="bAY7ywy6ZvZMYUQwSM17-21" style="edgeStyle=orthogonalEdgeStyle;rounded=0;orthogonalLoop=1;jettySize=auto;html=1;exitX=0.5;exitY=1;exitDx=0;exitDy=0;" edge="1" parent="1" source="bAY7ywy6ZvZMYUQwSM17-19" target="bAY7ywy6ZvZMYUQwSM17-7">
          <mxGeometry relative="1" as="geometry" />
        </mxCell>
        <mxCell id="bAY7ywy6ZvZMYUQwSM17-19" value="log" style="rounded=1;whiteSpace=wrap;html=1;" vertex="1" parent="1">
          <mxGeometry x="380" y="190" width="120" height="40" as="geometry" />
        </mxCell>
        <mxCell id="bAY7ywy6ZvZMYUQwSM17-22" value="db(sql,明文存储)" style="rounded=1;whiteSpace=wrap;html=1;" vertex="1" parent="1">
          <mxGeometry x="620" y="90" width="120" height="40" as="geometry" />
        </mxCell>
      </root>
    </mxGraphModel>
  </diagram>
</mxfile>
